<?xml version="1.0" encoding="UTF-8"?>
<svg width="25px" height="25px" viewBox="0 0 25 25" version="1.1" xmlns="http://www.w3.org/2000/svg" xmlns:xlink="http://www.w3.org/1999/xlink">
    <!-- Generator: Sketch 52.2 (67145) - http://www.bohemiancoding.com/sketch -->
    <title>float_add_button</title>
    <desc>Created with Sketch.</desc>
    <g id="Page-2" stroke="none" stroke-width="1" fill="none" fill-rule="evenodd">
        <g id="List" transform="translate(-308.000000, -586.000000)" fill="#FFFFFF">
            <g id="float_add_button" transform="translate(292.000000, 571.000000)">
                <path d="M26.8333333,25.8333333 L26.8333333,16.6596809 C26.8333333,15.7430644 27.573108,15 28.5,15 C29.4204746,15 30.1666667,15.7482003 30.1666667,16.6596809 L30.1666667,25.8333333 L39.3403191,25.8333333 C40.2569356,25.8333333 41,26.573108 41,27.5 C41,28.4204746 40.2517997,29.1666667 39.3403191,29.1666667 L30.1666667,29.1666667 L30.1666667,38.3403191 C30.1666667,39.2569356 29.426892,40 28.5,40 C27.5795254,40 26.8333333,39.2517997 26.8333333,38.3403191 L26.8333333,29.1666667 L17.6596809,29.1666667 C16.7430644,29.1666667 16,28.426892 16,27.5 C16,26.5795254 16.7482003,25.8333333 17.6596809,25.8333333 L26.8333333,25.8333333 Z"></path>
            </g>
        </g>
    </g>
</svg>