<?xml version="1.0" encoding="UTF-8"?>
<svg width="17px" height="17px" viewBox="0 0 17 17" version="1.1" xmlns="http://www.w3.org/2000/svg" xmlns:xlink="http://www.w3.org/1999/xlink">
    <!-- Generator: Sketch 52.2 (67145) - http://www.bohemiancoding.com/sketch -->
    <title>minus_icon</title>
    <desc>Created with Sketch.</desc>
    <g id="Page-2" stroke="none" stroke-width="1" fill="none" fill-rule="evenodd">
        <g id="Home" transform="translate(-292.000000, -392.000000)" fill="#64488A">
            <g id="Group-25" transform="translate(3.000000, 279.000000)">
                <g id="Group-23" transform="translate(13.000000, 0.000000)">
                    <path d="M283.5,120.5 L283.5,113.99996 C283.5,113.447697 283.943865,113 284.5,113 C285.052285,113 285.5,113.454709 285.5,113.99996 L285.5,120.5 L292.00004,120.5 C292.552303,120.5 293,120.943865 293,121.5 C293,122.052285 292.545291,122.5 292.00004,122.5 L285.5,122.5 L285.5,129.00004 C285.5,129.552303 285.056135,130 284.5,130 C283.947715,130 283.5,129.545291 283.5,129.00004 L283.5,122.5 L276.99996,122.5 C276.447697,122.5 276,122.056135 276,121.5 C276,120.947715 276.454709,120.5 276.99996,120.5 L283.5,120.5 Z" id="minus_icon"></path>
                </g>
            </g>
        </g>
    </g>
</svg>